HIERARCHY
ROOT hip
{
	OFFSET 0.000000 0.000000 0.000000 
	CHANNELS 6 Xposition Yposition Zposition Xrotation Zrotation Yrotation
	JOINT abdomen
	{
		OFFSET 0.000000 3.402643 0.000000 
		CHANNELS 3 Xrotation Zrotation Yrotation
		JOINT chest
		{
			OFFSET 0.000000 8.438565 -0.680529 
			CHANNELS 3 Xrotation Zrotation Yrotation
			JOINT neck
			{
				OFFSET 0.000000 10.207942 -0.272212 
				CHANNELS 3 Xrotation Zrotation Yrotation
				JOINT head
				{
					OFFSET 0.000000 3.130431 0.000000 
					CHANNELS 3 Xrotation Zrotation Yrotation
					End Site
					{
						OFFSET 0.000000 3.130435 0.000000 
					}
				}
			}
			JOINT lCollar
			{
				OFFSET 3.470700 6.669187 -0.816635 
				CHANNELS 3 Yrotation Zrotation Xrotation
				JOINT lShldr
				{
					OFFSET 3.198488 0.000000 0.000000 
					CHANNELS 3 Zrotation Yrotation Xrotation
					JOINT lForeArm
					{
						OFFSET 10.139888 0.000000 0.000000 
						CHANNELS 3 Yrotation Zrotation Xrotation
						JOINT lHand
						{
							OFFSET 8.370511 0.000000 0.000000 
							CHANNELS 3 Zrotation Yrotation Xrotation
							End Site
							{
								OFFSET 4.083176 0.000000 0.000000 
							}
						}
					}
				}
			}
			JOINT rCollar
			{
				OFFSET -3.470700 6.669187 -0.816635 
				CHANNELS 3 Yrotation Zrotation Xrotation
				JOINT rShldr
				{
					OFFSET -3.198488 0.000000 0.000000 
					CHANNELS 3 Zrotation Yrotation Xrotation
					JOINT rForeArm
					{
						OFFSET -10.139888 0.000000 0.000000 
						CHANNELS 3 Yrotation Zrotation Xrotation
						JOINT rHand
						{
							OFFSET -8.370511 0.000000 0.000000 
							CHANNELS 3 Zrotation Yrotation Xrotation
							End Site
							{
								OFFSET -4.083176 0.000000 0.000000 
							}
						}
					}
				}
			}
		}
	}
	JOINT lThigh
	{
		OFFSET 5.308129 -1.633274 1.361059 
		CHANNELS 3 Xrotation Zrotation Yrotation
		JOINT lShin
		{
			OFFSET -2.041588 -20.007561 0.000000 
			CHANNELS 3 Xrotation Zrotation Yrotation
			JOINT lFoot
			{
				OFFSET 0.000000 -19.190928 -1.224953 
				CHANNELS 3 Xrotation Yrotation Zrotation
				End Site
				{
					OFFSET 0.000000 -2.449906 4.627600 
				}
			}
		}
	}
	JOINT rThigh
	{
		OFFSET -5.308129 -1.633274 1.361059 
		CHANNELS 3 Xrotation Zrotation Yrotation
		JOINT rShin
		{
			OFFSET 2.041588 -20.007561 0.000000 
			CHANNELS 3 Xrotation Zrotation Yrotation
			JOINT rFoot
			{
				OFFSET 0.000000 -19.190928 -1.224953 
				CHANNELS 3 Xrotation Yrotation Zrotation
				End Site
				{
					OFFSET 0.000000 -2.449906 4.627600 
				}
			}
		}
	}
}
MOTION
Frames: 11
Frame Time: 0.016667
6.168327 48.922798 4.774696 -10.989995 3.700593 29.301651 26.254675 -7.089479 4.712771 -13.989896 -5.039555 6.861570 16.506533 9.783425 -7.575078 16.506533 9.783425 -7.575078 -18.130201 6.554935 13.450141 -73.155373 -16.727459 -19.392313 -57.934437 16.969933 -6.615902 -114.372070 -50.361740 12.931562 2.725368 0.125050 -0.203425 58.289696 12.150139 0.114278 50.893116 65.277222 27.259724 34.150414 5.827476 -32.123901 -13.189076 21.174082 4.556188 44.539158 -15.812058 -12.924540 -15.580278 8.430839 0.707041 9.971308 -5.798545 -32.775826 38.491859 -23.767557 -16.317787 8.210052 -26.341995 16.934877 
6.571073 49.135689 4.774111 -10.952317 3.816136 29.682360 26.215361 -7.106461 4.729920 -14.029017 -5.049633 6.883502 16.715334 9.791755 -7.651900 16.715334 9.791755 -7.651900 -18.212345 6.493473 13.611523 -73.376999 -16.864477 -19.434969 -57.587051 17.377272 -6.965737 -114.866982 -50.205788 13.299576 2.189764 0.034504 -0.313587 56.766144 11.199943 0.211239 58.664440 66.301552 19.097967 33.457142 3.003234 -31.039238 -12.802042 19.978928 3.814972 43.692524 -15.428478 -12.197437 -15.186352 8.772458 0.860822 9.324698 -6.015501 -32.829174 39.608551 -24.643311 -15.561797 8.594444 -23.224564 16.905634 
6.965281 49.342041 4.786192 -10.944164 3.940906 30.010536 26.193821 -7.084283 4.753475 -14.048897 -5.020682 6.898075 16.892500 9.764053 -7.744800 16.892500 9.764053 -7.744800 -18.390934 6.474725 13.952409 -73.796204 -17.051802 -19.753592 -57.538757 17.671871 -7.072201 -114.691063 -50.158428 12.960903 1.723446 -0.095566 -0.491590 55.360378 10.037199 0.442432 67.266937 66.778923 10.531869 32.117607 -1.265009 -29.060867 -12.251997 18.841238 3.164969 42.731068 -15.051125 -11.444872 -14.926210 9.063604 0.951369 8.923011 -6.288545 -32.593864 40.341492 -25.177105 -14.079570 8.507562 -20.409809 18.200350 
7.336244 49.534691 4.826735 -10.927068 4.123349 30.318619 26.173946 -7.057471 4.736058 -14.068684 -5.001441 6.872539 17.016254 9.664120 -7.810049 17.016254 9.664120 -7.810049 -18.418434 6.427324 14.190461 -74.212219 -17.091223 -20.069405 -57.577858 17.798292 -7.031765 -114.031456 -50.313580 12.170032 1.343453 -0.367406 -0.549588 53.940933 8.945752 -0.031226 74.517120 67.703148 4.085546 30.469061 -4.192767 -28.079687 -11.587228 17.795340 2.471586 41.693554 -14.855308 -10.541039 -14.760187 9.256016 1.007352 8.404639 -6.619900 -32.087891 41.043804 -25.414524 -12.420934 8.075953 -18.202696 19.522457 
7.677426 49.708942 4.897529 -10.920568 4.353616 30.625912 26.147503 -7.037242 4.651563 -14.098001 -5.011423 6.786181 17.124319 9.452775 -7.805592 17.124319 9.452775 -7.805592 -18.298504 6.321939 14.264510 -74.506882 -16.958740 -20.178959 -57.651981 17.879845 -7.107701 -113.255257 -50.642269 11.364638 0.992911 -0.697539 -0.619233 53.408180 8.300433 -0.877860 80.038132 68.363327 -0.743504 28.895044 -6.203856 -27.922579 -10.884004 16.847891 1.755723 40.688511 -14.754480 -9.767366 -14.613659 9.500729 1.037665 8.210073 -6.903296 -31.970743 41.008427 -25.529095 -10.142762 7.423315 -17.072071 20.230080 
7.986878 49.861168 4.987808 -10.963370 4.592730 30.898952 26.152079 -7.011250 4.523812 -14.097821 -5.030847 6.657185 17.244776 9.091443 -7.670326 17.244776 9.091443 -7.670326 -18.072773 6.166902 14.158074 -74.667908 -16.609455 -20.123550 -57.706554 18.020535 -7.304931 -112.554131 -50.938797 10.771992 0.779366 -1.116505 -0.706945 53.428265 7.827765 -1.762937 83.498474 68.688316 -4.438815 27.627237 -6.777753 -26.653128 -10.141730 16.037449 1.184532 39.810020 -14.640217 -9.121324 -14.488035 9.666837 1.037914 7.741056 -7.117847 -31.404308 41.269859 -25.205711 -8.693702 6.773649 -16.959787 20.395758 
8.262017 49.988087 5.081107 -11.026628 4.869795 31.103176 26.176214 -6.999949 4.407384 -14.077943 -5.059800 6.544978 17.373335 8.683494 -7.509007 17.373335 8.683494 -7.509007 -17.905056 6.025330 13.945630 -74.777321 -16.124599 -20.103472 -57.830097 17.975107 -7.289828 -112.073502 -51.351894 10.651237 0.614519 -1.554884 -0.785853 54.028778 7.425975 -2.001672 85.185394 68.243996 -7.285913 26.967834 -6.317349 -24.407604 -9.402376 15.338336 0.610637 39.000221 -14.644587 -8.481497 -14.380834 9.745532 1.003989 7.308959 -7.175375 -30.804884 41.300655 -24.639910 -7.897233 6.324240 -17.729137 20.607113 
8.504582 50.085651 5.158346 -11.129924 5.174798 31.239906 26.229525 -7.021744 4.327066 -14.028465 -5.107896 6.476915 17.477234 8.370568 -7.384922 17.477234 8.370568 -7.384922 -17.749580 5.873373 13.692200 -74.803833 -15.705682 -19.980927 -57.697475 18.208384 -7.542183 -112.248650 -51.434505 10.974195 0.469419 -1.885836 -0.886445 55.157318 7.362875 -1.476952 84.896584 67.093971 -8.458637 27.152824 -5.116456 -22.659462 -8.627214 14.668951 0.234205 38.323601 -14.580844 -7.961020 -14.346181 9.818441 1.029563 6.868691 -7.057190 -30.319180 41.092312 -24.144650 -8.077892 5.991186 -18.638546 21.271481 
8.717789 50.148903 5.205015 -11.253256 5.479203 31.304474 26.291611 -7.041047 4.267321 -13.969264 -5.146174 6.428466 17.602049 8.075736 -7.271535 17.602049 8.075736 -7.271535 -17.601250 5.718427 13.471573 -74.860718 -15.305634 -20.061361 -57.645622 18.286631 -7.636592 -112.568954 -51.516563 11.387244 0.373618 -1.992729 -1.026988 56.618435 7.845280 -0.280226 82.442429 65.371841 -7.344481 28.049896 -3.467656 -21.887325 -8.054399 14.029706 -0.091499 37.926880 -14.445060 -7.737818 -14.257353 10.142110 1.016575 6.388631 -6.812085 -29.906342 40.798264 -23.665699 -9.077008 5.424731 -19.318352 22.150812 
8.902847 50.170410 5.212852 -11.426298 5.791909 31.263227 26.420961 -7.077644 4.258160 -13.841418 -5.183764 6.432357 17.657423 7.765616 -7.145327 17.657423 7.765616 -7.145327 -17.403557 5.618052 13.301022 -74.870285 -15.138635 -20.241026 -57.548306 18.216503 -7.679536 -112.826836 -51.625317 11.765765 0.347213 -1.866578 -1.244008 58.312008 8.701261 1.108137 78.245567 63.585133 -4.322813 29.195528 -1.723712 -21.808352 -7.574033 13.479884 -0.508435 37.746429 -14.434099 -7.847776 -14.244599 10.870591 1.141055 6.036885 -6.547182 -29.513702 40.377659 -23.190775 -10.380466 4.513681 -19.719563 23.054106 
9.054279 50.144688 5.192691 -11.611177 6.170934 31.069708 26.618401 -7.136818 4.284773 -13.644814 -5.230310 6.477589 17.632975 7.421696 -7.003894 17.632975 7.421696 -7.003894 -17.181620 5.544964 13.217040 -74.794708 -15.176486 -20.486788 -57.377846 18.048573 -7.763042 -112.991119 -51.733131 12.091842 0.555277 -1.531191 -1.462400 59.999279 9.755225 2.086431 72.904068 62.183319 -0.132289 30.389168 -0.291346 -22.251913 -7.175247 12.876859 -0.972009 37.725071 -14.453169 -8.005048 -14.356366 11.820129 1.332967 5.669834 -6.315950 -29.156574 39.880424 -22.786821 -11.563026 3.242017 -20.070665 23.584669 
